<?xml version="1.0" ?><svg viewBox="0 0 512 512" xmlns="http://www.w3.org/2000/svg"><g id="Lime"><path d="M277.42,168.64a28.33,28.33,0,0,0-17.18-17.16,8.25,8.25,0,0,0,.07-.88,118,118,0,0,0-2.26-23.33c16.51,1.28,36.67-4.52,55-17.24,23.86-16.53,37.86-40,37.41-59.4-18-7.21-44.89-2.35-68.75,14.19-14.92,10.34-26,23.42-32.08,36.5A76.38,76.38,0,0,0,227.8,73.56,8.5,8.5,0,1,0,217.37,87c10.89,8.47,18.56,21.37,22.79,38.35a105.44,105.44,0,0,1,3.15,24.94c0,.21,0,.41,0,.61a28.31,28.31,0,0,0-19.12,17.76,125.82,125.82,0,0,0,0,245.94,28.24,28.24,0,0,0,53.21,0,125.82,125.82,0,0,0,0-245.94Zm-26.6,218.27a8.5,8.5,0,0,1,0-17,78.39,78.39,0,0,0,78.3-78.3,8.5,8.5,0,0,1,17,0A95.41,95.41,0,0,1,250.82,386.91Z"/></g></svg>